<?xml version="1.0" encoding="UTF-8" standalone="no"?>
<!DOCTYPE svg PUBLIC "-//W3C//DTD SVG 1.1//EN" "http://www.w3.org/Graphics/SVG/1.1/DTD/svg11.dtd">
<svg version="1.1" xmlns="http://www.w3.org/2000/svg" xmlns:xlink="http://www.w3.org/1999/xlink" preserveAspectRatio="xMidYMid meet" viewBox="-1 -0.9999999999998295 644 203.99999999999983" width="1280" height="400"><defs><path d="M219.55 0L420.47 0C420.01 0.5 419.76 0.78 419.71 0.84C419.44 1.16 406.27 14.35 380.19 40.4L260.35 40.4L260.35 160.2C233.17 186.73 219.57 200 219.55 200C219.53 200 219.53 133.33 219.55 0Z" id="btH7RrkEI"></path><path d="M39.6 79.6L120.4 79.6L80.2 120.4L39.6 120.4L39.6 79.6Z" id="e3rbQgZSq"></path><path d="M0 0L100.28 0L200.6 0L180.4 20.2L160.2 40.4L80.12 40.4L0 40.4L0 20.2L0 0Z" id="a2cpK2JZk3"></path><path d="" id="j1Nwctepa4"></path><path d="M439.08 0L640 0C639.54 0.5 639.29 0.78 639.24 0.84C638.97 1.16 625.8 14.35 599.72 40.4L479.88 40.4L479.88 160.2C452.7 186.73 439.1 200 439.08 200C439.06 200 439.06 133.33 439.08 0Z" id="a26ZD0TBNx"></path></defs><g><g><use xlink:href="#btH7RrkEI" opacity="1" fill="#ffffff" fill-opacity="1"></use><g><use xlink:href="#btH7RrkEI" opacity="1" fill-opacity="0" stroke="#000000" stroke-width="0" stroke-opacity="0"></use></g></g><g><use xlink:href="#e3rbQgZSq" opacity="1" fill="#ffffff" fill-opacity="1"></use><g><use xlink:href="#e3rbQgZSq" opacity="1" fill-opacity="0" stroke="#000000" stroke-width="0" stroke-opacity="0"></use></g></g><g><use xlink:href="#a2cpK2JZk3" opacity="1" fill="#ffffff" fill-opacity="1"></use><g><use xlink:href="#a2cpK2JZk3" opacity="1" fill-opacity="0" stroke="#000000" stroke-width="0" stroke-opacity="0"></use></g></g><g><use xlink:href="#j1Nwctepa4" opacity="1" fill="#ffffff" fill-opacity="1"></use><g><use xlink:href="#j1Nwctepa4" opacity="1" fill-opacity="0" stroke="#000000" stroke-width="0" stroke-opacity="1"></use></g></g><g><use xlink:href="#a26ZD0TBNx" opacity="1" fill="#ffffff" fill-opacity="1"></use><g><use xlink:href="#a26ZD0TBNx" opacity="1" fill-opacity="0" stroke="#000000" stroke-width="0" stroke-opacity="0"></use></g></g></g></svg>