<?xml version="1.0" encoding="UTF-8" standalone="no"?>
<!DOCTYPE svg PUBLIC "-//W3C//DTD SVG 1.1//EN" "http://www.w3.org/Graphics/SVG/1.1/DTD/svg11.dtd">
<svg version="1.1" xmlns="http://www.w3.org/2000/svg" xmlns:xlink="http://www.w3.org/1999/xlink" preserveAspectRatio="xMidYMid meet" viewBox="0 0 300 246" width="300" height="246"><defs><path d="M211.08 154.4C203.45 167.6 185.8 198.17 158.13 246.1L158.04 184.32C216.91 82.32 246.35 31.28 246.35 31.2C246.35 31.1 216.91 31.03 158.04 30.99L158.04 0C252.68 0.04 300 0.11 300 0.21C300 0.33 213.83 149.63 211.08 154.4Z" id="bBk0u2jQ9"></path><path d="M142.54 15.63C142.54 16.65 142.54 21.77 142.54 30.99C115.87 30.99 101.06 30.99 98.1 30.99C73.65 30.99 53.65 31.03 53.65 31.08C53.65 31.12 55.27 33.99 57.25 37.42C59.24 40.87 63.49 48.21 66.68 53.74C69.88 59.28 74.56 67.38 77.08 71.76C79.6 76.11 84.31 84.27 87.54 89.86C92.94 99.22 95.5 103.65 108.84 126.76C111.36 131.12 116.07 139.27 119.3 144.87C122.54 150.46 127.42 158.91 130.15 163.65C132.88 168.4 136.79 175.16 138.83 178.7C139.07 179.13 140.31 181.27 142.54 185.13C142.54 203.55 142.54 213.78 142.54 215.83C142.54 232.72 142.49 246.55 142.39 246.55C142.31 246.55 140.28 243.12 137.86 238.93C130.5 226.17 118.93 206.17 106.48 184.63C103.48 179.42 98.79 171.3 96.06 166.56C91.07 157.9 84.83 147.09 74.72 129.63C71.72 124.42 67.03 116.3 64.3 111.56C61.57 106.81 56.86 98.66 53.84 93.45C50.82 88.22 46.09 80.03 43.32 75.24C40.56 70.44 35.67 61.99 32.48 56.46C29.28 50.92 24.42 42.51 21.69 37.77C14.02 24.5 6.99 12.3 3.33 5.97C1.49 2.81 0 0.17 0 0.12C0 -0.04 142.25 -0.02 142.41 0.14C142.49 0.19 142.54 7.17 142.54 15.63Z" id="baxnGR3ro"></path></defs><g><g><g><use xlink:href="#bBk0u2jQ9" opacity="1" fill="#ff5400" fill-opacity="1"></use><g><use xlink:href="#bBk0u2jQ9" opacity="1" fill-opacity="0" stroke="#000000" stroke-width="1" stroke-opacity="0"></use></g></g><g><use xlink:href="#baxnGR3ro" opacity="1" fill="#ff5400" fill-opacity="1"></use><g><use xlink:href="#baxnGR3ro" opacity="1" fill-opacity="0" stroke="#000000" stroke-width="1" stroke-opacity="0"></use></g></g></g></g></svg>